<svg width="16" height="16" viewBox="0 0 16 16" xmlns="http://www.w3.org/2000/svg"><path d="M1 0h14a1 1 0 0 1 1 1v14a1 1 0 0 1-1 1H1a1 1 0 0 1-1-1V1a1 1 0 0 1 1-1zm7 1C4.14 1 1 4.14 1 8s3.14 7 7 7 7-3.14 7-7-3.14-7-7-7zm5.26 4.318h-1.768c-.236-1.06-.589-1.99-1.06-2.711a5.94 5.94 0 0 1 2.829 2.711zM13.91 8c0 .545-.074 1.09-.221 1.592h-2.005c.059-.516.089-1.047.089-1.592 0-.545-.03-1.076-.089-1.592h2.019A6.27 6.27 0 0 1 13.91 8zM2.09 8c0-.545.074-1.09.221-1.592h2.02A14.067 14.067 0 0 0 4.24 8c0 .545.03 1.076.09 1.592H2.31A5.691 5.691 0 0 1 2.091 8zm3.228 0c0-.53.044-1.06.118-1.592H7.47v3.184H5.436A11.57 11.57 0 0 1 5.318 8zm3.227-5.777c.81.384 1.459 1.621 1.813 3.11H8.545v-3.11zm-1.09 0v3.11H5.642c.353-1.489 1.002-2.727 1.813-3.11zm0 8.459v3.11c-.81-.384-1.459-1.621-1.813-3.11h1.813zm1.09 3.095v-3.11h1.813c-.354 1.489-1.002 2.727-1.813 3.11zm0-4.185V6.408h2.034c.074.531.118 1.061.118 1.592 0 .53-.044 1.06-.118 1.592H8.545zm-2.977-6.97c-.457.72-.825 1.65-1.06 2.71H2.738a5.811 5.811 0 0 1 2.83-2.71zm-2.829 8.06h1.768c.236 1.06.59 1.99 1.061 2.711a5.94 5.94 0 0 1-2.829-2.711zm7.692 2.697c.458-.722.826-1.65 1.061-2.711h1.769a5.811 5.811 0 0 1-2.83 2.71z"/></svg>