<svg width="24" height="24" viewBox="0 0 24 24" xmlns="http://www.w3.org/2000/svg"><path d="M12.569 5.14l3.38 1.817a.3.3 0 0 1 .164.385l-6.077 11.61a.795.795 0 0 1-.321.325v.002l-3.08 1.704a.207.207 0 0 1-.18-.007.208.208 0 0 1-.103-.149h.002l-.35-3.539a.797.797 0 0 1 .085-.452l6.073-11.614a.293.293 0 0 1 .407-.082zm5.272-1.785a.322.322 0 0 1 .12.43l-1.196 2.297a.363.363 0 0 1-.49.153h-.002L12.97 4.468a.374.374 0 0 1-.152-.498l1.196-2.296a.32.32 0 0 1 .198-.163.318.318 0 0 1 .249.036l3.38 1.808z"/></svg>