<?xml version="1.0" encoding="UTF-8"?>
<svg width="24px" height="24px" viewBox="0 0 24 24" version="1.1" xmlns="http://www.w3.org/2000/svg" xmlns:xlink="http://www.w3.org/1999/xlink">
    <!-- Generator: Sketch 51.2 (57519) - http://www.bohemiancoding.com/sketch -->
    <title>icon/src-tool/edit/default</title>
    <desc>Created with Sketch.</desc>
    <defs></defs>
    <g id="icon/src-tool/edit/default" stroke="none" stroke-width="1" fill="none" fill-rule="evenodd">
        <g id="icon/various/edit/default" fill="#232323">
            <path d="M12.568725,5.1402843 L15.9487152,6.95717606 C16.0969812,7.0189866 16.1719804,7.19028571 16.1126767,7.34216278 L10.0358433,18.9519836 C9.96258552,19.0897327 9.8509529,19.2027566 9.71489952,19.2769275 L9.71489952,19.2786952 L6.63455362,20.9828704 C6.57699584,21.007591 6.51071285,21.0058278 6.45489654,20.9758041 C6.40082616,20.945785 6.36245133,20.8910362 6.35198466,20.8274625 L6.35373059,20.8274625 L6.00487865,17.2884111 C5.98743717,17.1330032 6.01708679,16.9758275 6.08860312,16.8363153 L12.1623108,5.2215214 C12.2530145,5.08730319 12.4344175,5.05021777 12.568725,5.1402843 Z M17.841357,3.35495788 L17.8413659,3.35499857 C17.9896274,3.44153424 18.0436978,3.6322599 17.9617193,3.78413697 L17.9617193,3.78590015 L16.7651515,6.08168797 C16.6709425,6.26005333 16.4511647,6.32892561 16.274995,6.23532821 L16.2732491,6.23532821 L12.9696379,4.46754311 C12.7934682,4.37216445 12.7254438,4.14964741 12.817889,3.96951435 L14.0144567,1.67372653 C14.0545775,1.5942526 14.1260894,1.53597745 14.2115598,1.51125233 C14.2952842,1.4882949 14.3859835,1.50065973 14.4609872,1.54657458 L17.841357,3.35495788 Z" id="Combined-Shape-Copy-2"></path>
        </g>
    </g>
</svg>