<?xml version="1.0" encoding="UTF-8"?>
<svg width="16px" height="16px" viewBox="0 0 16 16" version="1.1" xmlns="http://www.w3.org/2000/svg" xmlns:xlink="http://www.w3.org/1999/xlink">
    <!-- Generator: Sketch 51.2 (57519) - http://www.bohemiancoding.com/sketch -->
    <title>icon/instance/instance/default</title>
    <desc>Created with Sketch.</desc>
    <defs></defs>
    <g id="icon/instance/instance/default" stroke="none" stroke-width="1" fill="none" fill-rule="evenodd">
        <path d="M1,0 L15,0 C15.5522847,-1.01453063e-16 16,0.44771525 16,1 L16,15 C16,15.5522847 15.5522847,16 15,16 L1,16 C0.44771525,16 6.76353751e-17,15.5522847 0,15 L0,1 C-6.76353751e-17,0.44771525 0.44771525,1.01453063e-16 1,0 Z M7.26388166,10.2935038 C7.24833677,10.3106918 7.23279085,10.3270978 7.21684697,10.3423318 C7.20847656,10.3513168 7.20090309,10.3614728 7.19173575,10.3712378 L6.39374595,11.2263178 C6.00272554,11.6454578 5.37931738,11.6927278 4.88548064,11.2497558 L4.8775082,11.2427248 C4.38404901,10.8001448 4.3772735,10.1880248 4.76829391,9.76812479 L5.56668166,8.91304479 C5.57744391,8.90210779 5.58820615,8.89077879 5.59936636,8.87945079 C5.61212146,8.86499779 5.62487656,8.85015379 5.63882758,8.83609179 L7.05382758,7.31969179 C6.12549085,6.96969179 5.09831738,7.12203179 4.46576636,7.79899179 L3.53903197,8.79235179 C2.67846044,9.71383179 2.87058298,11.2552518 3.9563582,12.2286519 L3.9647286,12.2360738 C5.05013677,13.2091239 6.63452452,13.2602738 7.49472962,12.3391938 L8.42146432,11.3458338 C9.05244391,10.6708338 9.11661738,9.65633379 8.67736228,8.77983379 L7.26388166,10.2935038 Z M11.862147,3.76025379 C10.777147,2.78759379 9.18877962,2.74115379 8.32898371,3.66181579 L7.40224901,4.65478579 C6.77007554,5.33212579 6.70630003,6.34818579 7.14475922,7.22318579 L8.62037146,5.64198579 C8.62395922,5.63846979 8.62754595,5.63573579 8.63033677,5.63182979 C8.63033677,5.63182979 8.63113371,5.63065779 8.63153166,5.63065779 L9.42952146,4.77518779 C9.82133779,4.35604779 10.4543174,4.29784779 10.955746,4.74745379 C11.4496031,5.19042379 11.4464194,5.81385379 11.0553949,6.23335379 L10.2773337,7.06655379 C10.2665715,7.07749179 10.2558092,7.08881979 10.2458449,7.09975679 L8.76982452,8.68095679 C9.69816126,9.03095679 10.7257429,8.87900679 11.3574776,8.20204679 L12.2846102,7.20946679 C13.1447796,6.28758679 12.9562429,4.74146679 11.8621,3.76026679 L11.862147,3.76025379 Z M5.89949391,10.1134038 L5.94174493,10.1512948 C6.2634082,10.4395748 6.75368371,10.4153548 7.04786738,10.1001228 L10.0298062,6.90672279 C10.3231735,6.59188279 10.3040408,6.11141279 9.98157554,5.82352279 L9.93932452,5.78563179 C9.61845717,5.49813179 9.12937554,5.52118179 8.83483473,5.83602279 L5.85412044,9.02982279 C5.56035513,9.34505279 5.57869187,9.82591279 5.89956024,10.1134228 L5.89949391,10.1134038 Z" id="Combined-Shape" fill="#232323"></path>
    </g>
</svg>