<?xml version="1.0" encoding="UTF-8"?>
<svg width="24px" height="24px" viewBox="0 0 24 24" version="1.1" xmlns="http://www.w3.org/2000/svg" xmlns:xlink="http://www.w3.org/1999/xlink">
    <!-- Generator: Sketch 51.2 (57519) - http://www.bohemiancoding.com/sketch -->
    <title>icon/src-tool/delete/default</title>
    <desc>Created with Sketch.</desc>
    <defs></defs>
    <g id="icon/src-tool/delete/default" stroke="none" stroke-width="1" fill="none" fill-rule="evenodd">
        <g id="icon/various/delete/default" fill="#232323">
            <path d="M6.79349951,21.8834419 L6.36144926,10.2961919 L18.5652938,10.2961919 L18.1341673,21.8834419 C18.1341673,22.2240685 17.8658707,22.5 17.5346685,22.5 L7.39207455,22.5 C7.06087234,22.5 6.79349951,22.2240685 6.79349951,21.8834419 Z M19.4617945,5.94677139 L19.4619366,5.94677139 C19.9939112,5.94677139 20.4268852,6.39206573 20.4268852,6.93917781 L20.4268852,8.02482787 C20.4268852,8.57193996 19.9939112,9.01723429 19.4619366,9.01723429 L5.46494854,9.01723429 C4.93297394,9.01723429 4.5,8.57193996 4.5,8.02482787 L4.5,6.93917781 C4.5,6.39206573 4.93297394,5.94677139 5.46494854,5.94677139 L8.40512605,5.94677139 L8.40512605,3.99240643 C8.40512605,3.44434436 8.83809999,3 9.37007459,3 L15.6824325,3 C16.2144071,3 16.647381,3.44529434 16.647381,3.99240643 L16.647381,5.94677139 L19.4617945,5.94677139 Z" id="Combined-Shape"></path>
        </g>
    </g>
</svg>