<svg width="16" height="16" viewBox="0 0 16 16" xmlns="http://www.w3.org/2000/svg"><path d="M1 0h14a1 1 0 0 1 1 1v14a1 1 0 0 1-1 1H1a1 1 0 0 1-1-1V1a1 1 0 0 1 1-1zm6.264 10.294a.933.933 0 0 1-.047.048l-.025.03-.798.854c-.391.42-1.015.467-1.509.024l-.007-.007c-.494-.443-.5-1.055-.11-1.475l.799-.855.032-.034.04-.043L7.054 7.32c-.929-.35-1.956-.198-2.588.479l-.927.993c-.86.922-.668 2.463.417 3.437l.009.007c1.085.973 2.67 1.024 3.53.103l.926-.993c.631-.675.696-1.69.256-2.566l-1.413 1.514zm4.598-6.534c-1.085-.972-2.673-1.019-3.533-.098l-.927.993c-.632.677-.696 1.693-.257 2.568L8.62 5.642c.004-.004.008-.006.01-.01l.002-.001.798-.856c.391-.419 1.024-.477 1.526-.028.494.443.49 1.067.1 1.486l-.779.834-.031.033L8.77 8.68c.928.35 1.956.198 2.587-.479l.928-.993c.86-.921.671-2.468-.423-3.449zM5.9 10.113l.043.038a.79.79 0 0 0 1.106-.05l2.982-3.194a.751.751 0 0 0-.048-1.083l-.043-.038a.789.789 0 0 0-1.104.05L5.855 9.03a.753.753 0 0 0 .045 1.083z"/></svg>