<?xml version="1.0" encoding="UTF-8"?>
<svg width="16px" height="16px" viewBox="0 0 16 16" version="1.1" xmlns="http://www.w3.org/2000/svg" xmlns:xlink="http://www.w3.org/1999/xlink">
    <!-- Generator: Sketch 51.2 (57519) - http://www.bohemiancoding.com/sketch -->
    <title>icon/various/delete/default</title>
    <desc>Created with Sketch.</desc>
    <defs></defs>
    <g id="icon/various/delete/default" stroke="none" stroke-width="1" fill="none" fill-rule="evenodd">
        <path d="M4.52899967,14.5889612 L4.24096617,6.86412795 L12.3768625,6.86412795 L12.0894448,14.5889612 C12.0894448,14.8160457 11.9105805,15 11.689779,15 L4.9280497,15 C4.70724823,15 4.52899967,14.8160457 4.52899967,14.5889612 Z M12.9745297,3.96451426 L12.9746244,3.96451426 C13.3292742,3.96451426 13.6179235,4.26137715 13.6179235,4.62611854 L13.6179235,5.34988524 C13.6179235,5.71462664 13.3292742,6.01148953 12.9746244,6.01148953 L3.64329903,6.01148953 C3.28864929,6.01148953 3,5.71462664 3,5.34988524 L3,4.62611854 C3,4.26137715 3.28864929,3.96451426 3.64329903,3.96451426 L5.60341736,3.96451426 L5.60341736,2.66160428 C5.60341736,2.29622958 5.89206666,2 6.24671639,2 L10.454955,2 C10.8096047,2 11.098254,2.29686289 11.098254,2.66160428 L11.098254,3.96451426 L12.9745297,3.96451426 Z" id="Combined-Shape" fill="#232323"></path>
    </g>
</svg>