<?xml version="1.0" encoding="UTF-8"?>
<svg width="16px" height="16px" viewBox="0 0 16 16" version="1.1" xmlns="http://www.w3.org/2000/svg" xmlns:xlink="http://www.w3.org/1999/xlink">
    <!-- Generator: Sketch 51.2 (57519) - http://www.bohemiancoding.com/sketch -->
    <title>icon/various/close/default</title>
    <desc>Created with Sketch.</desc>
    <defs></defs>
    <g id="icon/various/close/default" stroke="none" stroke-width="1" fill="none" fill-rule="evenodd">
        <path d="M8.00040982,9.26312401 L3.25633425,14 C2.9044326,13.7948378 2.65991252,13.6237916 2.52277401,13.4868612 C2.3856355,13.3499308 2.2113775,13.1028345 2,12.7455724 L6.75330429,8.00051836 L2,3.25546436 C2.13387648,2.96422108 2.28975834,2.7297174 2.46764558,2.55195333 C2.64553283,2.37418925 2.90842905,2.19020481 3.25633425,2 L7.99959018,6.73687599 L12.7436658,2 C13.0955674,2.20516216 13.3400875,2.37620844 13.477226,2.51313883 C13.6143645,2.65006922 13.7886225,2.89716549 14,3.25442765 L9.24669571,7.99948164 L14,12.7445356 C13.8661235,13.0357789 13.7102417,13.2702826 13.5323544,13.4480467 C13.3544672,13.6258107 13.0915709,13.8097952 12.7436658,14 L8.00040982,9.26312401 Z" id="Combined-Shape-Copy-4" fill="#232323"></path>
    </g>
</svg>