<?xml version="1.0" encoding="UTF-8"?>
<svg width="16px" height="16px" viewBox="0 0 16 16" version="1.1" xmlns="http://www.w3.org/2000/svg" xmlns:xlink="http://www.w3.org/1999/xlink">
    <!-- Generator: Sketch 51.2 (57519) - http://www.bohemiancoding.com/sketch -->
    <title>icon/various/clear/default</title>
    <desc>Created with Sketch.</desc>
    <defs></defs>
    <g id="icon/various/clear/default" stroke="none" stroke-width="1" fill="none" fill-rule="evenodd">
        <path d="M8.50030736,9.447343 L4.94225069,13 C4.67832445,12.8461284 4.49493439,12.7178437 4.39208051,12.6151459 C4.28922662,12.5124481 4.15853312,12.3271259 4,12.0591793 L7.56497822,8.50038877 L4,4.94159827 C4.10040736,4.72316581 4.21731875,4.54728805 4.35073419,4.413965 C4.48414962,4.28064194 4.68132179,4.14265361 4.94225069,4 L8.49969264,7.552657 L12.0577493,4 C12.3216755,4.15387162 12.5050656,4.28215633 12.6079195,4.38485412 C12.7107734,4.48755192 12.8414669,4.67287412 13,4.94082073 L9.43502178,8.49961123 L13,12.0584017 C12.8995926,12.2768342 12.7826812,12.4527119 12.6492658,12.586035 C12.5158504,12.7193581 12.3186782,12.8573464 12.0577493,13 L8.50030736,9.447343 Z" id="Combined-Shape-Copy-4" fill="#232323"></path>
    </g>
</svg>