<?xml version="1.0" encoding="UTF-8"?>
<svg width="16px" height="16px" viewBox="0 0 16 16" version="1.1" xmlns="http://www.w3.org/2000/svg" xmlns:xlink="http://www.w3.org/1999/xlink">
    <!-- Generator: Sketch 51.2 (57519) - http://www.bohemiancoding.com/sketch -->
    <title>icon/src-type/audio/default</title>
    <desc>Created with Sketch.</desc>
    <defs></defs>
    <g id="icon/src-type/audio/default" stroke="none" stroke-width="1" fill="none" fill-rule="evenodd">
        <path d="M1,0 L15,0 C15.5522847,-1.01453063e-16 16,0.44771525 16,1 L16,15 C16,15.5522847 15.5522847,16 15,16 L1,16 C0.44771525,16 6.76353751e-17,15.5522847 0,15 L0,1 C-6.76353751e-17,0.44771525 0.44771525,1.01453063e-16 1,0 Z M2,5.98645706 L2,10.0051849 L4.29392303,10.0051849 L8.01152057,13 L8.01152057,3 L4.29392303,6.0118959 L2,5.98645706 Z M10.4594336,7.97034801 C10.4594336,6.98048637 9.87566561,6.10381732 9,5.67960931 L9,10.2329883 C9.87566561,9.83690448 10.4594336,8.96023543 10.4594336,7.97034801 Z M9,3.02091089 L9,4.1803681 C10.6928805,4.66123685 11.9188945,6.18860221 11.9188945,7.97034801 C11.9188945,9.7521196 10.6928805,11.279485 9,11.7603279 L9,12.9197851 C11.3350992,12.4107665 13.0864304,10.3743566 13.0864304,7.97034801 C13.0864304,5.56636516 11.3350992,3.52992957 9,3.02091089 Z" id="Combined-Shape" fill="#232323"></path>
    </g>
</svg>