<?xml version="1.0" encoding="UTF-8"?>
<svg width="16px" height="16px" viewBox="0 0 16 16" version="1.1" xmlns="http://www.w3.org/2000/svg" xmlns:xlink="http://www.w3.org/1999/xlink">
    <!-- Generator: Sketch 51.2 (57519) - http://www.bohemiancoding.com/sketch -->
    <title>icon/various/edit/default</title>
    <desc>Created with Sketch.</desc>
    <defs></defs>
    <g id="icon/various/edit/default" stroke="none" stroke-width="1" fill="none" fill-rule="evenodd">
        <path d="M8.37914999,3.4268562 L10.6324768,4.63811737 C10.7313208,4.6793244 10.7813203,4.7935238 10.7417845,4.89477519 L6.69056221,12.6346557 C6.64172368,12.7264885 6.56730193,12.8018378 6.47659968,12.851285 L6.47659968,12.8524635 L4.42303574,13.9885803 C4.38466389,14.0050607 4.34047523,14.0038852 4.30326436,13.9838694 C4.26721744,13.9638567 4.24163422,13.9273575 4.23465644,13.884975 L4.2358204,13.884975 L4.00325243,11.5256074 C3.99162478,11.4220021 4.0113912,11.3172184 4.05906874,11.2242102 L8.1082072,3.48101427 C8.16867636,3.39153546 8.2896117,3.36681185 8.37914999,3.4268562 Z M11.894238,2.23663859 L11.8942439,2.23666572 C11.9930849,2.29435616 12.0291319,2.4215066 11.9744795,2.52275798 L11.9744795,2.52393343 L11.1767677,4.05445864 C11.1139617,4.17336889 10.9674431,4.21928374 10.8499967,4.15688547 L10.8488327,4.15688547 L8.64642528,2.97836207 C8.52897883,2.9147763 8.48362919,2.76643161 8.54525933,2.6463429 L9.34297116,1.11581769 C9.36971834,1.06283507 9.41739291,1.02398497 9.47437317,1.00750155 C9.53018949,0.992196603 9.59065567,1.00043982 9.64065815,1.03104972 L11.894238,2.23663859 Z" id="Combined-Shape-Copy-2" fill="#232323"></path>
    </g>
</svg>