<svg width="16" height="16" viewBox="0 0 16 16" xmlns="http://www.w3.org/2000/svg"><path d="M8 16A8 8 0 1 1 8 0a8 8 0 0 1 0 16zm.605-11.76a.185.185 0 0 0-.254.05l-3.796 7.148a.484.484 0 0 0-.052.278l.218 2.178H4.72c.007.039.03.073.064.091.035.019.077.02.113.004l1.925-1.048v-.001a.493.493 0 0 0 .2-.2l3.798-7.145a.184.184 0 0 0-.102-.237L8.605 4.24zm3.296-1.098L9.788 2.029a.199.199 0 0 0-.28.078L8.762 3.52a.228.228 0 0 0 .095.306l2.065 1.088c.111.058.248.015.307-.094l.748-1.413v-.001a.196.196 0 0 0-.075-.264z"/></svg>