<?xml version="1.0" encoding="UTF-8"?>
<svg width="16px" height="16px" viewBox="0 0 16 16" version="1.1" xmlns="http://www.w3.org/2000/svg" xmlns:xlink="http://www.w3.org/1999/xlink">
    <!-- Generator: Sketch 51.2 (57519) - http://www.bohemiancoding.com/sketch -->
    <title>icon/src-type/link/default</title>
    <desc>Created with Sketch.</desc>
    <defs></defs>
    <g id="icon/src-type/link/default" stroke="none" stroke-width="1" fill="none" fill-rule="evenodd">
        <path d="M1,0 L15,0 C15.5522847,-1.01453063e-16 16,0.44771525 16,1 L16,15 C16,15.5522847 15.5522847,16 15,16 L1,16 C0.44771525,16 6.76353751e-17,15.5522847 0,15 L0,1 C-6.76353751e-17,0.44771525 0.44771525,1.01453063e-16 1,0 Z M8,1 C4.13909474,1 1,4.13909474 1,8 C1,11.8609053 4.13909474,15 8,15 C11.8609053,15 15,11.8609053 15,8 C15,4.13909474 11.8609053,1 8,1 Z M13.2609053,5.31804211 L11.4924842,5.31804211 C11.2564589,4.25710737 10.9030105,3.32856842 10.4315495,2.60675789 C11.6548253,3.16630105 12.6571074,4.12421053 13.2608758,5.31804211 L13.2609053,5.31804211 Z M13.9096653,8 C13.9096653,8.54514526 13.8359811,9.09029053 13.6886126,9.59172632 L11.6841074,9.59172632 C11.7428248,9.07593684 11.7727583,8.54517474 11.7727583,8 C11.7727583,7.45482526 11.7433996,6.92409263 11.6841074,6.40827368 L13.7029074,6.40827368 C13.8358838,6.90966526 13.9095621,7.45482526 13.9095621,8 L13.9096653,8 Z M2.09027579,8 C2.09027579,7.45485474 2.16396,6.90970947 2.31132842,6.40827368 L4.33012842,6.40827368 C4.27141095,6.92406316 4.24147747,7.45482526 4.24147747,8 C4.24147747,8.54517474 4.27083621,9.07590737 4.33012842,9.59172632 L2.31132842,9.59172632 C2.16396,9.09033474 2.09027579,8.54517474 2.09027579,8 Z M5.31793895,8 C5.31793895,7.46923789 5.36226442,6.93906526 5.43594863,6.40827368 L7.46978021,6.40827368 L7.46978021,9.59172632 L5.43594863,9.59172632 C5.36226442,9.06096421 5.31793895,8.53079158 5.31793895,8 Z M8.54501263,2.22330526 C9.35553895,2.60669895 10.0037242,3.84435789 10.3577916,5.33307368 L8.54501263,5.33307368 L8.54501263,2.22330526 Z M7.45472211,2.22330526 L7.45472211,5.33307368 L5.64194316,5.33249806 C5.99539158,3.84437175 6.64416632,2.60618227 7.45472211,2.22330526 Z M7.45472211,10.6819579 L7.45472211,13.7917263 C6.64419579,13.4083326 5.99601053,12.1706737 5.64194316,10.6819579 L7.45472211,10.6819579 Z M8.54501263,13.7766947 L8.54501263,10.6669263 L10.3577916,10.6669263 C10.0043432,12.1556421 9.35556842,13.3938316 8.54501263,13.7766947 Z M8.54501263,9.59172632 L8.54501263,6.40827368 L10.5788442,6.40827368 C10.6525284,6.93903579 10.6968539,7.46920842 10.6968539,8 C10.6968539,8.53079158 10.6525284,9.06093474 10.5788442,9.59172632 L8.54501263,9.59172632 Z M5.56831789,2.62105263 C5.11124,3.34292211 4.74281895,4.27143158 4.50738316,5.33233684 L2.73896211,5.33233684 C3.34283368,4.12403368 4.34498316,3.16616842 5.56828842,2.62105263 L5.56831789,2.62105263 Z M2.73899158,10.6819579 L4.50741263,10.6819579 C4.74343789,11.7428926 5.09688632,12.6714316 5.56834737,13.3932421 C4.34507158,12.8336989 3.34278947,11.8757895 2.73902105,10.6819579 L2.73899158,10.6819579 Z M10.4314758,13.3789474 C10.8885537,12.6570779 11.2569747,11.7285684 11.4924105,10.6676632 L13.2608316,10.6676632 C12.65696,11.8759663 11.6548105,12.8338316 10.4315053,13.3789474 L10.4314758,13.3789474 Z" id="Shape" fill="#232323" fill-rule="nonzero"></path>
    </g>
</svg>