<?xml version="1.0" encoding="UTF-8"?>
<svg width="16px" height="16px" viewBox="0 0 16 16" version="1.1" xmlns="http://www.w3.org/2000/svg" xmlns:xlink="http://www.w3.org/1999/xlink">
    <!-- Generator: Sketch 51.2 (57519) - http://www.bohemiancoding.com/sketch -->
    <title>icon/various/public/default</title>
    <desc>Created with Sketch.</desc>
    <defs></defs>
    <g id="icon/various/public/default" stroke="none" stroke-width="1" fill="none" fill-rule="evenodd">
        <path d="M8,2 C4.68608,2 2,4.68622769 2,8 C2,11.3137723 4.68622769,14 8,14 C11.3137723,14 14,11.3137723 14,8 C14,4.68622769 11.3137723,2 8,2 Z M7.37865846,13.1057231 C6.24039385,12.96957 5.18690462,12.4595692 4.36366769,11.6363028 C3.39213292,10.665344 2.85735385,9.37365662 2.85735385,7.99997046 C2.85735385,6.76304738 3.2912,5.59361969 4.08619815,4.66360123 C4.10696665,4.909376 4.15715988,5.17244554 4.1444672,5.36110769 C4.09715988,6.04764062 4.02966006,6.47687877 4.43119705,7.05617231 C4.58754412,7.28174277 4.6261952,7.60481969 4.70234535,7.866176 C4.77676898,8.12175754 5.07445612,8.25559631 5.27985182,8.41309538 C5.69408443,8.73039754 6.09043151,9.09962831 6.52946166,9.37944615 C6.81907151,9.56406154 7.00023089,9.65579323 6.91542597,10.0094425 C6.84734868,10.2938683 6.82831114,10.4692529 6.68062474,10.7225157 C6.63562437,10.7998238 6.85023458,11.2971274 6.92177674,11.3686695 C7.13811643,11.5850092 7.35274289,11.7834782 7.58869612,11.9779003 C7.95389489,12.2796357 7.55292652,12.671936 7.37869243,13.1057822 L7.37865846,13.1057231 Z M11.6363323,11.6363028 C10.8967188,12.3759163 9.97184,12.8616911 8.96635077,13.0520665 C9.10885022,12.6995692 9.36269785,12.3862991 9.59807508,12.2051397 C9.80288,12.0470646 10.0590375,11.7436012 10.1663508,11.5024492 C10.2730821,11.2618732 10.4150055,11.0535975 10.5580751,10.8326351 C10.761728,10.5182129 10.0555815,10.0439877 9.82654031,9.94475323 C9.31134523,9.72091077 8.92365292,9.41975138 8.46616123,9.09725046 C8.14020431,8.86763323 7.47789292,9.21725046 7.10981415,9.05628948 C6.60557785,8.83590302 6.19019323,8.45340948 5.75173908,8.12340578 C5.29943138,7.78301932 5.32134892,7.38552025 5.32134892,6.88302671 C5.67557415,6.89629598 6.17981046,6.78495015 6.41461169,7.06994609 C6.48903532,7.15994683 6.74403938,7.56148086 6.91480123,7.41898732 C7.05441625,7.30244923 6.81153182,6.83514486 6.76422892,6.72495163 C6.61999852,6.38686917 7.09308062,6.2553344 7.33538462,6.02629317 C7.65153477,5.72745255 8.33000369,5.25841132 8.27634708,5.04437563 C8.22269342,4.83033994 7.59787815,4.22283717 7.23096615,4.31744886 C7.17615902,4.3318719 6.69154954,4.83957071 6.59807508,4.91917686 C6.60038292,4.75359902 6.6032675,4.58744517 6.60557519,4.42186732 C6.60730585,4.31744443 6.41057703,4.20955963 6.4192318,4.14206425 C6.44230873,3.9713024 6.91711734,3.66206425 7.03538934,3.52590671 C6.9528899,3.473984 6.67019057,3.23167409 6.58480965,3.26744517 C6.37770073,3.353984 6.14403673,3.41283052 5.9375038,3.4993664 C5.9375038,3.4278272 5.92884992,3.36032738 5.91846479,3.29340948 C6.3332734,3.10994609 6.77172756,2.98186732 7.22577802,2.91379594 L7.63193186,3.07706978 L7.91866171,3.41745625 L8.20481556,3.71284086 L8.45519833,3.79361083 L8.8526974,3.41860529 L8.75000546,3.15148898 L8.75000546,2.91091298 C9.53577285,3.02514412 10.2783255,3.31821883 10.928467,3.77052652 C10.8119289,3.78091121 10.684435,3.79821883 10.5401987,3.81668037 C10.4807762,3.78148825 10.4040441,3.76533366 10.3394258,3.74110326 C10.5280732,4.14610511 10.7242381,4.54533218 10.9238442,4.94513526 C11.1373039,5.37205465 11.6103772,5.83013711 11.6934541,6.2807168 C11.7915306,6.81206942 11.7234548,7.29437342 11.7771085,7.91980603 C11.8284552,8.52153403 12.4555774,9.20576295 12.4555774,9.20576295 C12.4555774,9.20576295 12.7451872,9.30441698 12.9857632,9.26980086 C12.7613448,10.1576827 12.3009583,10.9716593 11.6363429,11.6362747 L11.6363323,11.6363028 Z" id="Shape-Copy-9" fill="#232323" fill-rule="nonzero"></path>
    </g>
</svg>