<?xml version="1.0" encoding="UTF-8"?>
<svg width="16px" height="16px" viewBox="0 0 16 16" version="1.1" xmlns="http://www.w3.org/2000/svg" xmlns:xlink="http://www.w3.org/1999/xlink">
    <!-- Generator: Sketch 51.2 (57519) - http://www.bohemiancoding.com/sketch -->
    <title>icon/various/search/default</title>
    <desc>Created with Sketch.</desc>
    <defs></defs>
    <g id="icon/various/search/default" stroke="none" stroke-width="1" fill="none" fill-rule="evenodd">
        <path d="M6.97833454,10.5443031 C4.45047497,10.5443031 2.40169991,8.49552803 2.40169991,5.96766846 C2.40169991,3.4398089 4.45047497,1.39014499 6.97833454,1.39014499 C9.5061941,1.39014499 11.5549692,3.4398089 11.5549692,5.96766846 C11.5549692,8.49552803 9.5061941,10.5443031 6.97833454,10.5443031 Z M11.1309927,10.8989501 L10.8492306,10.5274151 C12.137159,9.43147603 12.9566691,7.80223321 12.9566691,5.97833454 C12.9566691,2.67629576 10.2803733,0 6.97833454,0 C3.6771846,0 1,2.67629576 1,5.97833454 C1,9.27948447 3.6771846,11.9557802 6.97833454,11.9557802 C8.00938837,11.9557802 8.97911227,11.6953503 9.82528748,11.2349314 L10.1426032,11.6535748 L13.1877673,16 C13.4419754,15.9342259 13.6961835,15.8097883 13.9450586,15.6195767 C14.2081551,15.418699 14.3957002,15.2071552 14.5112494,14.9902783 L11.1309927,10.8989501 Z" id="Fill-3" fill="#232323"></path>
    </g>
</svg>