<svg width="16" height="16" viewBox="0 0 16 16" xmlns="http://www.w3.org/2000/svg"><path d="M8 2a6 6 0 1 0 0 12A6 6 0 0 0 8 2zm-.621 11.106a5.104 5.104 0 0 1-3.015-1.47A5.107 5.107 0 0 1 2.857 8c0-1.237.434-2.406 1.23-3.336.02.245.07.508.057.697-.047.687-.114 1.116.287 1.695.157.226.195.549.271.81.075.256.372.39.578.547.414.317.81.687 1.25.966.29.185.47.277.385.63-.068.285-.087.46-.234.714-.045.077.17.574.24.646.217.216.432.414.668.609.365.302-.036.694-.21 1.128zm4.257-1.47a5.107 5.107 0 0 1-2.67 1.416 2.13 2.13 0 0 1 .632-.847 2.15 2.15 0 0 0 .568-.703c.107-.24.249-.448.392-.67.204-.314-.502-.788-.731-.887-.516-.224-.903-.525-1.36-.848-.327-.23-.99.12-1.357-.04-.504-.221-.92-.604-1.358-.934-.453-.34-.43-.737-.43-1.24.354.013.858-.098 1.093.187.074.09.329.491.5.349.14-.117-.103-.584-.15-.694-.145-.338.328-.47.57-.699.317-.299.995-.768.941-.982-.053-.214-.678-.821-1.045-.727-.055.015-.54.523-.633.602l.008-.497c.001-.105-.195-.212-.187-.28.023-.17.498-.48.616-.616-.082-.052-.365-.294-.45-.259-.207.087-.441.146-.647.232 0-.071-.01-.139-.02-.206a5.096 5.096 0 0 1 1.308-.38l.406.164.287.34.286.296.25.08.398-.374-.103-.268v-.24a5.087 5.087 0 0 1 2.178.86c-.116.01-.244.027-.388.046-.06-.036-.136-.052-.2-.076.188.405.384.804.584 1.204.213.427.686.885.77 1.336.098.531.03 1.013.083 1.639.051.602.679 1.286.679 1.286s.29.098.53.064a5.11 5.11 0 0 1-1.35 2.366z"/></svg>