<?xml version="1.0" encoding="UTF-8"?>
<svg width="16px" height="16px" viewBox="0 0 16 16" version="1.1" xmlns="http://www.w3.org/2000/svg" xmlns:xlink="http://www.w3.org/1999/xlink">
    <!-- Generator: Sketch 51.2 (57519) - http://www.bohemiancoding.com/sketch -->
    <title>icon/circle/edit</title>
    <desc>Created with Sketch.</desc>
    <defs></defs>
    <g id="icon/circle/edit" stroke="none" stroke-width="1" fill="none" fill-rule="evenodd">
        <path d="M8,16 C3.581722,16 -1.082166e-15,12.418278 0,8 C1.082166e-15,3.581722 3.581722,-8.99087962e-16 8,1.83078039e-16 C12.418278,1.26524404e-15 16,3.581722 16,8 C16,12.418278 12.418278,16 8,16 Z M8.60545311,4.24017496 C8.52151096,4.1847494 8.40813408,4.2075712 8.35144425,4.29016702 L4.55537695,11.4377325 C4.51067925,11.5235862 4.49214823,11.6203096 4.50304916,11.7159453 L4.72108162,13.8938231 L4.71999041,13.8938231 C4.72653208,13.9329453 4.75051635,13.9666369 4.78431034,13.9851102 C4.81919553,14.0035864 4.8606224,14.0046714 4.89659601,13.9894587 L6.8218122,12.9407355 L6.8218122,12.9396477 C6.90684556,12.8940041 6.97661595,12.8244509 7.02240207,12.7396822 L10.8204229,5.59517709 C10.8574878,5.50171428 10.8106132,5.39629944 10.717947,5.35826219 L8.60545311,4.24017496 Z M11.9008481,3.14151254 L9.78811702,2.02866128 C9.74123969,2.00040598 9.68455264,1.99279686 9.63222485,2.00692451 C9.57880585,2.02213997 9.53411094,2.0580016 9.50903546,2.10690863 L8.76118062,3.51970114 C8.70340237,3.63055225 8.74591765,3.76748582 8.8560237,3.82618038 L10.9207807,4.91404813 L10.9218719,4.91404813 C11.0319779,4.97164653 11.1693391,4.92926359 11.2282197,4.81950029 L11.9760745,3.40670778 L11.9760745,3.40562275 C12.0273111,3.31215994 11.9935171,3.1947903 11.9008537,3.14153758 L11.9008481,3.14151254 Z" id="Combined-Shape" fill="#232323"></path>
    </g>
</svg>