<?xml version="1.0" encoding="UTF-8"?>
<svg width="16px" height="16px" viewBox="0 0 16 16" version="1.1" xmlns="http://www.w3.org/2000/svg" xmlns:xlink="http://www.w3.org/1999/xlink">
    <!-- Generator: Sketch 51.2 (57519) - http://www.bohemiancoding.com/sketch -->
    <title>icon/circle/info</title>
    <desc>Created with Sketch.</desc>
    <defs></defs>
    <g id="icon/circle/info" stroke="none" stroke-width="1" fill="none" fill-rule="evenodd">
        <path d="M8,16 C3.581722,16 0,12.418278 0,8 C0,3.581722 3.581722,0 8,0 C12.418278,0 16,3.581722 16,8 C16,12.418278 12.418278,16 8,16 Z M9.25784615,5.88061538 L6.99815385,5.88061538 L6.08246154,13.5384615 L8.34215385,13.5384615 L9.25784615,5.88061538 Z M9.68615385,3.78338462 C9.68615385,3.59630676 9.64800038,3.42153927 9.57169231,3.25907692 C9.49538423,3.09661457 9.39446217,2.95384677 9.26892308,2.83076923 C9.14338399,2.70769169 8.99938543,2.61169265 8.83692308,2.54276923 C8.67446073,2.47384581 8.50461627,2.43938462 8.32738462,2.43938462 C8.15507606,2.43938462 7.99015463,2.47507657 7.83261538,2.54646154 C7.67507614,2.61784651 7.53353909,2.71507631 7.408,2.83815385 C7.28246091,2.96123138 7.1827696,3.10399919 7.10892308,3.26646154 C7.03507655,3.42892389 6.99815385,3.60122986 6.99815385,3.78338462 C6.99815385,3.96553937 7.03507655,4.13661458 7.10892308,4.29661538 C7.1827696,4.45661618 7.2799994,4.59692247 7.40061538,4.71753846 C7.52123137,4.83815445 7.6603069,4.93415349 7.81784615,5.00553846 C7.9753854,5.07692343 8.14030683,5.11261538 8.31261538,5.11261538 C8.48492394,5.11261538 8.65353764,5.07692343 8.81846154,5.00553846 C8.98338544,4.93415349 9.12984551,4.83815445 9.25784615,4.71753846 C9.38584679,4.59692247 9.48923038,4.45661618 9.568,4.29661538 C9.64676962,4.13661458 9.68615385,3.96553937 9.68615385,3.78338462 Z" id="Combined-Shape" fill="#232323"></path>
    </g>
</svg>