<?xml version="1.0" encoding="UTF-8"?>
<svg width="16px" height="16px" viewBox="0 0 16 16" version="1.1" xmlns="http://www.w3.org/2000/svg" xmlns:xlink="http://www.w3.org/1999/xlink">
    <!-- Generator: Sketch 51.2 (57519) - http://www.bohemiancoding.com/sketch -->
    <title>icon/various/locked/default</title>
    <desc>Created with Sketch.</desc>
    <defs></defs>
    <g id="icon/various/locked/default" stroke="none" stroke-width="1" fill="none" fill-rule="evenodd">
        <path d="M11.5909091,6.22889722 L10.9772727,6.22889722 L10.9772727,4.85714286 C10.9772727,3.28571429 9.59659091,2 7.90909091,2 C6.22159091,2 4.84090909,3.28571429 4.84090909,4.85714286 L4.84090909,6.22889722 L4.22727273,6.22889722 C3.55221136,6.22889722 3,6.74312579 3,7.37175437 L3,12.8571429 C3,13.4857714 3.55221136,14 4.22727273,14 L11.5909091,14 C12.2659705,14 12.8181818,13.4857714 12.8181818,12.8571429 L12.8181818,7.37175437 C12.8181818,6.74312579 12.2659705,6.22889722 11.5909091,6.22889722 Z M7.90909091,11.1764706 C7.28595734,11.1764706 6.77622378,10.7000529 6.77622378,10.1176471 C6.77622378,9.53524118 7.28595734,9.05882353 7.90909091,9.05882353 C8.53222448,9.05882353 9.04195804,9.53524118 9.04195804,10.1176471 C9.04195804,10.7000529 8.53222448,11.1764706 7.90909091,11.1764706 Z M9.811425,6.26212773 L6.00675682,6.26212773 L6.00675682,5.01647742 C6.00675682,3.95755008 6.86593977,3.08565714 7.90909091,3.08565714 C8.95239545,3.08565714 9.811425,3.95755008 9.811425,5.01647742 L9.811425,6.26212773 Z" id="Shape" fill="#232323" fill-rule="nonzero"></path>
    </g>
</svg>