<?xml version="1.0" encoding="UTF-8"?>
<svg width="16px" height="16px" viewBox="0 0 16 16" version="1.1" xmlns="http://www.w3.org/2000/svg" xmlns:xlink="http://www.w3.org/1999/xlink">
    <!-- Generator: Sketch 51.2 (57519) - http://www.bohemiancoding.com/sketch -->
    <title>icon/src-type/dataset/default</title>
    <desc>Created with Sketch.</desc>
    <defs></defs>
    <g id="icon/src-type/dataset/default" stroke="none" stroke-width="1" fill="none" fill-rule="evenodd">
        <path d="M1,0 L15,0 C15.5522847,-1.01453063e-16 16,0.44771525 16,1 L16,15 C16,15.5522847 15.5522847,16 15,16 L1,16 C0.44771525,16 6.76353751e-17,15.5522847 0,15 L0,1 C-6.76353751e-17,0.44771525 0.44771525,1.01453063e-16 1,0 Z M3,2 L3,3 L13,3 L13,2 L3,2 Z M4,6 L4,7 L7,7 L7,6 L4,6 Z M4,10 L4,11 L7,11 L7,10 L4,10 Z M8,6 L8,7 L12,7 L12,6 L8,6 Z M8,10 L8,11 L12,11 L12,10 L8,10 Z M3,13 L3,14 L13,14 L13,13 L3,13 Z M3,3 L3,13 L4,13 L4,3 L3,3 Z M7,3 L7,13 L8,13 L8,3 L7,3 Z M12,3 L12,13 L13,13 L13,3 L12,3 Z" id="Combined-Shape" fill="#232323"></path>
    </g>
</svg>