<?xml version="1.0" encoding="UTF-8"?>
<svg width="16px" height="16px" viewBox="0 0 16 16" version="1.1" xmlns="http://www.w3.org/2000/svg" xmlns:xlink="http://www.w3.org/1999/xlink">
    <!-- Generator: Sketch 51.2 (57519) - http://www.bohemiancoding.com/sketch -->
    <title>icon/various/progress/default</title>
    <desc>Created with Sketch.</desc>
    <defs></defs>
    <g id="icon/various/progress/default" stroke="none" stroke-width="1" fill="none" fill-rule="evenodd">
        <path d="M5.65624075,6.21814042 C4.27536229,6.21814042 3.02535917,6.77771542 2.12060691,7.68251542 L1.90625637,7.89736542 L1.90625637,6.21811542 L0.656253246,6.21811542 L0.656253246,9.96811542 L4.40626262,9.96811542 L4.40626262,8.71811542 L2.85300874,8.71811542 L3.00485912,8.56626542 C3.68308581,7.88804042 4.62061316,7.46811542 5.65624075,7.46811542 C7.72749592,7.46811542 9.40625012,9.14686542 9.40625012,11.2181154 L10.6562532,11.2181154 C10.6562532,8.45636542 8.41749765,6.21811542 5.65624075,6.21811542 L5.65624075,6.21814042 Z" id="Shape" fill="#232323" fill-rule="nonzero" transform="translate(5.656253, 8.718115) scale(1, -1) rotate(-75.000000) translate(-5.656253, -8.718115) "></path>
        <path d="M11.735873,7.4240077 L13.2891269,7.4240077 L13.1372765,7.57585694 C12.4590498,8.25407855 11.5215225,8.67400145 10.4858949,8.67400145 C8.4146397,8.67400145 6.7358855,6.99525984 6.7358855,4.9240202 L5.48588238,4.9240202 C5.48588238,7.68575639 7.72463797,9.9239952 10.4858949,9.9239952 C11.8667733,9.9239952 13.1167765,9.364423 14.0215287,8.45962752 L14.2358793,8.2447786 L14.2358793,9.9240202 L15.4858824,9.9240202 L15.4858824,6.17403895 L11.735873,6.17403895 L11.735873,7.4240077 Z" id="Shape" fill="#232323" fill-rule="nonzero" transform="translate(10.485882, 7.424020) scale(1, -1) rotate(-75.000000) translate(-10.485882, -7.424020) "></path>
    </g>
</svg>