<?xml version="1.0" encoding="UTF-8"?>
<svg width="16px" height="16px" viewBox="0 0 16 16" version="1.1" xmlns="http://www.w3.org/2000/svg" xmlns:xlink="http://www.w3.org/1999/xlink">
    <!-- Generator: Sketch 51.2 (57519) - http://www.bohemiancoding.com/sketch -->
    <title>icon/various/bookmark/default</title>
    <desc>Created with Sketch.</desc>
    <defs></defs>
    <g id="icon/various/bookmark/default" stroke="none" stroke-width="1" fill="none" fill-rule="evenodd">
        <path d="M13.9683854,6.13732638 C13.9010298,5.97344961 13.7367019,5.86605985 13.5537901,5.86605985 L10.4345516,5.86605985 L8.91268905,2.26735754 C8.84417104,2.10515605 8.68100562,2 8.49984779,2 C8.31868995,2 8.15551858,2.10571161 8.08700653,2.26735754 L6.56454939,5.86605985 L3.44590551,5.86605985 C3.26299363,5.86605985 3.09867767,5.97400947 3.0313102,6.13732638 C2.96395463,6.30120314 3.00750267,6.48801836 3.14047463,6.60828057 L5.60774113,8.83826465 L4.36049168,12.4268007 C4.30126421,12.5968345 4.35874952,12.785325 4.50391363,12.8977549 C4.64965894,13.0101791 4.8523158,13.0241613 5.01257366,12.9313149 L8.49941968,10.9188309 L11.9862657,12.9384743 C12.0571056,12.9793053 12.1366533,13 12.2162099,13 C12.3155026,13 12.4142096,12.9681181 12.4955055,12.906034 C12.6412508,12.7936098 12.6987376,12.6051135 12.6395086,12.4350798 L11.3922592,8.83866843 L13.8595257,6.61040259 C13.9924961,6.48847083 14.0360457,6.30109146 13.9686901,6.13721469 L13.9683854,6.13732638 Z" id="Page-1-Copy-2" fill="#232323"></path>
    </g>
</svg>