<svg width="16" height="16" viewBox="0 0 16 16" xmlns="http://www.w3.org/2000/svg"><path d="M8 16A8 8 0 1 1 8 0a8 8 0 0 1 0 16zM9.258 5.88h-2.26l-.916 7.658h2.26l.916-7.657zm.428-2.097c0-.187-.038-.361-.114-.524a1.469 1.469 0 0 0-.303-.428 1.383 1.383 0 0 0-.432-.288 1.292 1.292 0 0 0-.51-.104c-.172 0-.337.036-.494.107a1.468 1.468 0 0 0-.724.72c-.074.163-.11.335-.11.517 0 .183.036.354.11.514.074.16.171.3.292.42.12.121.26.217.417.289.157.07.322.107.495.107.172 0 .34-.036.505-.107a1.51 1.51 0 0 0 .44-.288c.128-.121.231-.261.31-.421.079-.16.118-.331.118-.514z"/></svg>