<?xml version="1.0" encoding="UTF-8"?>
<svg width="16px" height="16px" viewBox="0 0 16 16" version="1.1" xmlns="http://www.w3.org/2000/svg" xmlns:xlink="http://www.w3.org/1999/xlink">
    <!-- Generator: Sketch 51.2 (57519) - http://www.bohemiancoding.com/sketch -->
    <title>icon/various/more/default</title>
    <desc>Created with Sketch.</desc>
    <defs></defs>
    <g id="icon/various/more/default" stroke="none" stroke-width="1" fill="none" fill-rule="evenodd">
        <path d="M7.94998653,8.6865698 L5.18260911,11.4497475 C4.97733315,11.3300695 4.83469644,11.2302925 4.75469897,11.1504165 C4.67470151,11.0705404 4.57305101,10.9264009 4.44974747,10.717998 L7.22250831,7.95004984 L4.44974747,5.18210168 C4.52784208,5.01220977 4.61877317,4.87541595 4.72254073,4.77172024 C4.82630829,4.66802453 4.97966442,4.56070027 5.18260911,4.44974747 L7.94950841,7.21292513 L10.7168858,4.44974747 C10.9221618,4.5694254 11.0647985,4.66920239 11.144796,4.74907845 C11.2247934,4.82895451 11.3264439,4.97309401 11.4497475,5.18149693 L8.67698663,7.94944509 L11.4497475,10.7173933 C11.3716529,10.8872852 11.2807218,11.024079 11.1769542,11.1277747 C11.0731867,11.2314704 10.9198305,11.3387947 10.7168858,11.4497475 L7.94998653,8.6865698 Z" id="Combined-Shape" fill="#232323" transform="translate(7.949747, 7.949747) rotate(-225.000000) translate(-7.949747, -7.949747) "></path>
    </g>
</svg>