<?xml version="1.0" encoding="UTF-8"?>
<svg width="16px" height="16px" viewBox="0 0 16 16" version="1.1" xmlns="http://www.w3.org/2000/svg" xmlns:xlink="http://www.w3.org/1999/xlink">
    <g id="icon/various/save/default" stroke="none" stroke-width="1" fill="none" fill-rule="evenodd">
        <path d="M11.3980612,2 L3.24702261,2 C2.55921482,2 2,2.55924509 2,3.24709012 L2,12.7529099 C2,13.4407549 2.55921482,14 3.24702261,14 L12.7523278,14 C13.4401356,14 13.9993504,13.4407549 13.9993504,12.7529099 L14,5.0281011 L11.3980612,2 Z M7.99984146,12.1988693 C7.12757409,12.1988693 6.42027949,11.4915364 6.42027949,10.6192218 C6.42027949,9.74690722 7.12757409,9.03957433 7.99984146,9.03957433 C8.87210884,9.03957433 9.57940344,9.74690722 9.57940344,10.6192218 C9.57940344,11.4915364 8.87210884,12.1988693 7.99984146,12.1988693 Z M9.99507764,6.58696375 L3.71839716,6.58696375 L3.71839716,3.6770868 L9.99507764,3.6770868 L9.99507764,6.58696375 Z" id="Shape" fill="#000000" fill-rule="nonzero"></path>
    </g>
</svg>