<svg width="16" height="16" viewBox="0 0 16 16" xmlns="http://www.w3.org/2000/svg"><path d="M11.59 6.229h-.613V4.857C10.977 3.286 9.597 2 7.91 2 6.222 2 4.841 3.286 4.841 4.857V6.23h-.614C3.552 6.229 3 6.743 3 7.372v5.485C3 13.486 3.552 14 4.227 14h7.364c.675 0 1.227-.514 1.227-1.143V7.372c0-.629-.552-1.143-1.227-1.143zm-3.68 4.947c-.624 0-1.134-.476-1.134-1.058 0-.583.51-1.06 1.133-1.06s1.133.477 1.133 1.06c0 .582-.51 1.058-1.133 1.058zM9.81 6.262H6.007V5.016c0-1.058.859-1.93 1.902-1.93s1.902.872 1.902 1.93v1.246z"/></svg>